<svg xmlns="http://www.w3.org/2000/svg" width="160" height="47" fill="none" viewBox="0 0 160 47"><g clip-path="url(#clip0_144_601)"><path fill="#A6A6A6" d="M154.308 47.01H5.605C2.515 47.01 0 44.516 0 41.465V5.697C0 2.645 2.515.162 5.605.162h148.703c3.088 0 5.692 2.483 5.692 5.535v35.769c0 3.05-2.604 5.543-5.692 5.543Z"/><path fill="#000" d="M158.853 41.469c0 2.478-2.032 4.485-4.544 4.485H5.605c-2.512 0-4.55-2.007-4.55-4.485V5.698c0-2.478 2.038-4.492 4.55-4.492h148.703c2.513 0 4.544 2.014 4.544 4.492l.001 35.77Z"/><path fill="#fff" d="M35.707 23.336c-.034-3.774 3.128-5.61 3.273-5.696-1.791-2.58-4.567-2.933-5.542-2.961-2.332-.242-4.593 1.379-5.78 1.379-1.212 0-3.04-1.356-5.012-1.316-2.536.039-4.909 1.49-6.21 3.743-2.685 4.595-.683 11.347 1.89 15.06 1.288 1.82 2.792 3.85 4.76 3.779 1.926-.079 2.646-1.214 4.97-1.214 2.302 0 2.978 1.214 4.986 1.168 2.067-.033 3.368-1.827 4.61-3.662 1.487-2.085 2.085-4.138 2.109-4.243-.049-.017-4.015-1.512-4.054-6.037ZM31.915 12.235c1.035-1.28 1.744-3.021 1.547-4.789-1.499.066-3.374 1.025-4.453 2.277-.956 1.103-1.809 2.912-1.589 4.612 1.685.124 3.414-.84 4.495-2.1ZM63.58 37.06h-2.692l-1.475-4.579H54.29l-1.405 4.579h-2.62l5.077-15.586h3.136L63.58 37.06Zm-4.611-6.5-1.333-4.07c-.141-.415-.406-1.394-.796-2.935h-.047c-.155.663-.405 1.642-.75 2.936l-1.309 4.07h4.235ZM76.637 31.306c0 1.91-.523 3.422-1.568 4.53-.937.988-2.1 1.481-3.487 1.481-1.498 0-2.575-.532-3.23-1.595h-.047v5.92h-2.527V29.524c0-1.201-.032-2.435-.094-3.7h2.222l.141 1.782h.048c.843-1.342 2.121-2.012 3.838-2.012 1.341 0 2.461.523 3.357 1.572.899 1.049 1.347 2.428 1.347 4.14Zm-2.575.09c0-1.093-.249-1.995-.749-2.704-.546-.74-1.28-1.11-2.2-1.11-.623 0-1.19.205-1.695.612-.508.41-.84.945-.995 1.608-.078.309-.117.562-.117.761v1.874c0 .817.254 1.507.76 2.07.508.564 1.167.845 1.978.845.951 0 1.692-.363 2.222-1.087.53-.725.796-1.68.796-2.868ZM89.718 31.306c0 1.91-.523 3.422-1.57 4.53-.935.988-2.097 1.481-3.485 1.481-1.498 0-2.575-.532-3.229-1.595h-.047v5.92H78.86V29.524c0-1.201-.032-2.435-.094-3.7h2.223l.14 1.782h.048c.841-1.342 2.12-2.012 3.838-2.012 1.34 0 2.46.523 3.359 1.572.894 1.049 1.344 2.428 1.344 4.14Zm-2.575.09c0-1.093-.25-1.995-.75-2.704-.546-.74-1.278-1.11-2.198-1.11a2.65 2.65 0 0 0-1.698.612c-.507.41-.838.945-.993 1.608-.077.309-.117.562-.117.761v1.874c0 .817.253 1.507.758 2.07.508.563 1.166.845 1.98.845.951 0 1.692-.363 2.222-1.087.53-.725.796-1.68.796-2.868ZM104.343 32.69c0 1.326-.466 2.405-1.401 3.238-1.028.91-2.458 1.364-4.296 1.364-1.698 0-3.058-.323-4.088-.97l.585-2.082a6.99 6.99 0 0 0 3.653.996c.952 0 1.692-.214 2.225-.637.529-.424.794-.994.794-1.703 0-.633-.218-1.166-.656-1.598-.435-.432-1.161-.834-2.176-1.205-2.761-1.018-4.14-2.509-4.14-4.47 0-1.28.483-2.331 1.451-3.149.965-.818 2.252-1.227 3.861-1.227 1.436 0 2.628.247 3.58.74l-.632 2.036c-.889-.478-1.894-.717-3.019-.717-.889 0-1.583.217-2.08.648-.422.385-.633.855-.633 1.41 0 .617.241 1.126.725 1.527.42.37 1.185.77 2.294 1.203 1.357.54 2.354 1.17 2.995 1.895.639.721.958 1.624.958 2.702ZM112.697 27.697h-2.785v5.456c0 1.388.49 2.081 1.474 2.081.452 0 .826-.038 1.123-.116l.069 1.896c-.497.184-1.153.277-1.965.277-.998 0-1.777-.301-2.34-.902-.561-.602-.843-1.611-.843-3.03v-5.665h-1.659V25.82h1.659v-2.057l2.482-.74v2.797h2.785v1.877ZM125.264 31.351c0 1.727-.501 3.146-1.498 4.255-1.047 1.142-2.436 1.711-4.168 1.711-1.668 0-2.997-.547-3.988-1.64-.991-1.095-1.486-2.475-1.486-4.14 0-1.741.51-3.168 1.532-4.277 1.021-1.11 2.398-1.665 4.13-1.665 1.668 0 3.011.547 4.025 1.642.969 1.062 1.453 2.433 1.453 4.114Zm-2.622.08c0-1.036-.224-1.925-.678-2.666-.53-.897-1.287-1.344-2.268-1.344-1.016 0-1.788.448-2.317 1.344-.454.743-.678 1.646-.678 2.714 0 1.036.224 1.925.678 2.665.546.897 1.309 1.345 2.294 1.345.965 0 1.722-.457 2.269-1.368.465-.756.7-1.654.7-2.69ZM133.477 28.02a4.44 4.44 0 0 0-.797-.069c-.889 0-1.576.332-2.059.996-.421.585-.632 1.326-.632 2.22v5.896h-2.526l.024-7.7c0-1.295-.032-2.474-.095-3.537h2.201l.092 2.15h.07c.267-.74.688-1.334 1.264-1.78a3.08 3.08 0 0 1 1.826-.602 4.1 4.1 0 0 1 .632.045v2.381ZM144.778 30.913c0 .447-.03.824-.093 1.132h-7.58c.029 1.11.396 1.96 1.1 2.545.638.524 1.465.786 2.479.786 1.122 0 2.146-.177 3.067-.532l.396 1.734c-1.076.463-2.347.694-3.813.694-1.763 0-3.147-.513-4.155-1.538-1.005-1.024-1.509-2.4-1.509-4.127 0-1.695.469-3.106 1.406-4.231.981-1.202 2.308-1.803 3.976-1.803 1.639 0 2.88.601 3.723 1.803.667.954 1.003 2.135 1.003 3.537Zm-2.41-.648c.017-.74-.148-1.38-.49-1.92-.438-.694-1.11-1.04-2.014-1.04-.826 0-1.498.338-2.011 1.017-.421.54-.671 1.188-.748 1.942l5.263.001ZM58.133 11.885c0 1.379-.418 2.416-1.254 3.113-.773.643-1.873.965-3.298.965-.706 0-1.31-.03-1.817-.091V8.34c.66-.105 1.371-.16 2.14-.16 1.357 0 2.38.292 3.07.876.772.659 1.16 1.602 1.16 2.83Zm-1.31.034c0-.894-.239-1.579-.717-2.057-.48-.476-1.178-.715-2.1-.715-.39 0-.724.026-1 .08v5.725c.153.024.433.034.84.034.95 0 1.684-.26 2.2-.783.517-.522.778-1.284.778-2.284ZM65.078 13.085c0 .85-.246 1.545-.737 2.09-.514.562-1.195.841-2.046.841-.82 0-1.474-.268-1.96-.806-.487-.538-.73-1.216-.73-2.034 0-.855.25-1.556.753-2.1.503-.545 1.178-.818 2.03-.818.82 0 1.478.268 1.977.806.474.522.713 1.197.713 2.021Zm-1.289.04c0-.51-.111-.947-.333-1.31-.26-.441-.632-.661-1.114-.661-.499 0-.878.22-1.139.66-.223.364-.333.808-.333 1.333 0 .51.111.946.333 1.31.27.441.644.661 1.127.661.474 0 .846-.223 1.114-.672.23-.371.345-.812.345-1.321ZM74.388 10.372l-1.748 5.521h-1.138l-.724-2.397a17.784 17.784 0 0 1-.449-1.784h-.022a12.94 12.94 0 0 1-.45 1.784l-.769 2.397h-1.15l-1.645-5.52h1.277l.632 2.624c.153.62.278 1.212.379 1.772h.022c.093-.462.246-1.05.461-1.76l.793-2.636h1.013l.76 2.58c.183.628.332 1.234.447 1.817h.035c.084-.568.21-1.174.379-1.818l.678-2.579h1.22ZM80.827 15.892h-1.242V12.73c0-.975-.374-1.462-1.126-1.462-.368 0-.666.133-.897.402a1.415 1.415 0 0 0-.345.946v3.275h-1.242v-3.943c0-.485-.015-1.01-.045-1.58h1.092l.058.864h.034c.145-.269.36-.49.644-.667.336-.206.713-.31 1.126-.31.521 0 .955.166 1.3.5.429.409.643 1.019.643 1.83v3.307ZM84.253 15.891h-1.241V7.837h1.24v8.054ZM91.565 13.085c0 .85-.245 1.545-.736 2.09-.514.562-1.197.841-2.047.841-.82 0-1.474-.268-1.96-.806s-.729-1.216-.729-2.034c0-.855.25-1.556.753-2.1.502-.545 1.178-.818 2.028-.818.821 0 1.479.268 1.979.806.474.522.712 1.197.712 2.021Zm-1.29.04c0-.51-.11-.947-.332-1.31-.26-.441-.632-.661-1.113-.661-.5 0-.88.22-1.14.66-.222.364-.332.808-.332 1.333 0 .51.111.946.333 1.31.269.441.643.661 1.127.661.474 0 .845-.223 1.113-.672.23-.371.345-.812.345-1.321ZM97.576 15.891h-1.115l-.092-.636h-.035c-.381.507-.925.761-1.632.761-.527 0-.954-.167-1.275-.5a1.558 1.558 0 0 1-.437-1.124c0-.675.284-1.189.857-1.545.571-.356 1.375-.53 2.41-.522v-.103c0-.727-.387-1.09-1.161-1.09-.551 0-1.037.136-1.457.408l-.252-.805c.519-.318 1.16-.477 1.916-.477 1.46 0 2.193.761 2.193 2.284v2.033c0 .551.027.99.08 1.316Zm-1.289-1.897v-.852c-1.37-.023-2.055.348-2.055 1.113 0 .288.078.504.238.648.16.144.364.215.607.215.273 0 .527-.085.76-.255a1.045 1.045 0 0 0 .45-.87ZM104.634 15.891h-1.102l-.058-.886h-.034c-.352.674-.952 1.011-1.795 1.011-.673 0-1.234-.26-1.678-.783-.445-.523-.666-1.2-.666-2.033 0-.894.24-1.618.724-2.17.468-.516 1.042-.773 1.724-.773.751 0 1.276.249 1.574.75h.024v-3.17h1.243v6.567c0 .537.015 1.033.044 1.487Zm-1.287-2.328v-.92c0-.16-.012-.289-.034-.387a1.4 1.4 0 0 0-.449-.744c-.232-.2-.51-.3-.831-.3-.464 0-.826.18-1.093.545-.264.364-.398.829-.398 1.397 0 .546.127.989.381 1.33.269.362.632.544 1.086.544a1.2 1.2 0 0 0 .981-.455c.24-.28.357-.617.357-1.01ZM115.257 13.085c0 .85-.245 1.545-.736 2.09-.514.562-1.195.841-2.047.841-.819 0-1.472-.268-1.96-.806-.486-.538-.729-1.216-.729-2.034 0-.855.25-1.556.753-2.1.502-.545 1.178-.818 2.03-.818.819 0 1.479.268 1.977.806.474.522.712 1.197.712 2.021Zm-1.287.04c0-.51-.111-.947-.333-1.31-.262-.441-.632-.661-1.115-.661-.498 0-.877.22-1.139.66-.223.364-.333.808-.333 1.333 0 .51.111.946.333 1.31.269.441.643.661 1.127.661.474 0 .847-.223 1.115-.672.229-.371.345-.812.345-1.321ZM121.936 15.892h-1.241V12.73c0-.975-.375-1.462-1.127-1.462a1.12 1.12 0 0 0-.896.402 1.41 1.41 0 0 0-.345.946v3.275h-1.244v-3.943c0-.485-.014-1.01-.043-1.58h1.09l.058.864h.034c.146-.269.362-.49.644-.667.338-.206.713-.31 1.127-.31.52 0 .954.166 1.299.5.43.409.644 1.019.644 1.83v3.307ZM130.295 11.289h-1.368v2.681c0 .682.243 1.023.724 1.023a2.2 2.2 0 0 0 .553-.058l.032.932c-.245.09-.567.137-.964.137-.491 0-.873-.148-1.149-.443-.277-.295-.415-.792-.415-1.489V11.29h-.816v-.92h.816V9.357l1.218-.363v1.374h1.367l.002.92ZM136.87 15.891h-1.243v-3.139c0-.99-.375-1.485-1.125-1.485-.576 0-.969.287-1.185.861-.037.12-.058.268-.058.442v3.32h-1.241V7.837h1.241v3.327h.024c.391-.605.951-.907 1.678-.907.514 0 .94.166 1.278.5.42.415.631 1.034.631 1.851v3.283ZM143.653 12.87c0 .22-.017.405-.046.557h-3.725c.016.545.194.961.539 1.25.315.257.722.386 1.22.386.551 0 1.053-.087 1.506-.261l.194.852c-.53.227-1.153.341-1.875.341-.865 0-1.546-.252-2.039-.755-.496-.504-.741-1.18-.741-2.028 0-.832.229-1.526.69-2.079.481-.59 1.131-.885 1.953-.885.803 0 1.414.295 1.826.886.333.468.498 1.048.498 1.736Zm-1.185-.317a1.644 1.644 0 0 0-.241-.943c-.216-.34-.544-.512-.988-.512-.406 0-.736.167-.989.5a1.844 1.844 0 0 0-.368.955h2.586Z"/></g><defs><clipPath id="clip0_144_601"><path fill="#fff" d="M0 .153h160V47H0z"/></clipPath></defs></svg>