<svg xmlns="http://www.w3.org/2000/svg" width="160" height="48" fill="none" viewBox="0 0 160 48"><g clip-path="url(#clip0_144_642)"><path fill="#100F0D" d="M154.072 47.156H5.929c-3.259 0-5.925-2.635-5.925-5.855V6.166C.004 2.946 2.67.311 5.929.311h148.143c3.259 0 5.926 2.635 5.926 5.855v35.135c0 3.22-2.667 5.855-5.926 5.855Z"/><path fill="#A2A2A1" d="M154.072.31H5.929C2.67.31.004 2.947.004 6.167v35.135c0 3.22 2.666 5.855 5.925 5.855h148.143c3.259 0 5.926-2.635 5.926-5.855V6.166c0-3.22-2.667-5.855-5.926-5.855Zm0 .937c2.745 0 4.977 2.207 4.977 4.92V41.3c0 2.712-2.232 4.919-4.977 4.919H5.929c-2.744 0-4.977-2.207-4.977-4.92V6.167c0-2.712 2.233-4.919 4.977-4.919h148.143Z"/><path fill="#EB3131" d="M24.553 22.72 11.936 35.956l.002.007a3.4 3.4 0 0 0 3.291 2.495c.63 0 1.222-.168 1.73-.463l.04-.024 14.203-8.098-6.649-7.151Z"/><path fill="#F6B60B" d="m37.318 20.464-.012-.008-6.131-3.513-6.909 6.075 6.933 6.85 6.099-3.478a3.364 3.364 0 0 0 1.795-2.97 3.36 3.36 0 0 0-1.775-2.956Z"/><path fill="#5778C5" d="M11.934 10.83a3.262 3.262 0 0 0-.115.867v23.385c0 .3.039.59.116.866l13.052-12.896L11.934 10.83Z"/><path fill="#3BAD49" d="m24.646 23.393 6.531-6.452-14.186-8.128a3.447 3.447 0 0 0-1.762-.481 3.404 3.404 0 0 0-3.293 2.499v.003l12.71 12.56Z"/><path fill="#fff" stroke="#fff" stroke-miterlimit="10" stroke-width=".236" d="M56.256 11.768H52.8v.846h2.59c-.07.69-.348 1.231-.816 1.625-.469.393-1.067.591-1.774.591-.776 0-1.434-.267-1.972-.798-.528-.541-.797-1.211-.797-2.018 0-.807.269-1.477.797-2.019.538-.53 1.196-.796 1.972-.796.398 0 .778.068 1.126.216.348.149.627.355.846.62l.657-.649a2.96 2.96 0 0 0-1.144-.778 3.949 3.949 0 0 0-1.485-.276c-1.035 0-1.913.355-2.63 1.063-.716.71-1.076 1.585-1.076 2.619 0 1.034.36 1.91 1.076 2.619.717.708 1.595 1.063 2.63 1.063 1.087 0 1.953-.344 2.62-1.043.587-.582.887-1.37.887-2.354 0-.166-.02-.344-.05-.53Zm1.34-3.279v7.05h4.164v-.866h-3.248v-2.236h2.93v-.846h-2.93V9.357h3.248v-.868h-4.164Zm10.004.868v-.868h-4.902v.868h1.993v6.181h.916V9.357H67.6Zm4.438-.868h-.917v7.05h.917v-7.05Zm6.05.868v-.868h-4.902v.868h1.993v6.181h.916V9.357h1.993Zm9.25.05c-.708-.72-1.574-1.075-2.61-1.075-1.036 0-1.903.355-2.61 1.063-.708.7-1.056 1.576-1.056 2.619 0 1.043.348 1.92 1.056 2.619.707.708 1.574 1.063 2.61 1.063 1.026 0 1.902-.355 2.61-1.063.707-.7 1.055-1.576 1.055-2.62 0-1.033-.348-1.908-1.055-2.607Zm-4.563.588c.528-.53 1.176-.796 1.954-.796.775 0 1.424.266 1.942.796.528.522.787 1.203.787 2.019 0 .818-.26 1.497-.787 2.018-.518.53-1.167.798-1.942.798-.778 0-1.426-.267-1.954-.798-.517-.532-.776-1.2-.776-2.018 0-.816.26-1.486.776-2.019Zm7.796 1.153-.039-1.36h.039l3.626 5.75h.957V8.49h-.916v4.125l.038 1.36h-.038L90.77 8.489h-1.117v7.05h.917v-4.39Z"/><path fill="#fff" d="M127.188 35.865h2.211V21.223h-2.211v14.642Zm19.919-9.367-2.535 6.348h-.076l-2.631-6.348h-2.382l3.947 8.872-2.251 4.935h2.306l6.081-13.806h-2.459Zm-12.542 7.704c-.723 0-1.734-.358-1.734-1.243 0-1.13 1.259-1.564 2.344-1.564.972 0 1.431.207 2.021.49-.172 1.356-1.354 2.317-2.631 2.317Zm.268-8.024c-1.601 0-3.259.697-3.946 2.242l1.963.81c.42-.81 1.2-1.074 2.021-1.074 1.143 0 2.306.678 2.325 1.884v.15c-.401-.226-1.259-.565-2.306-.565-2.117 0-4.271 1.149-4.271 3.296 0 1.96 1.736 3.221 3.679 3.221 1.486 0 2.308-.659 2.821-1.432h.077v1.131h2.136v-5.614c0-2.599-1.965-4.05-4.499-4.05Zm-13.668 2.102h-3.145v-5.018h3.145a2.552 2.552 0 0 1 2.592 2.51c0 1.134-.939 2.509-2.592 2.509Zm-.057-7.056h-5.299v14.642h2.211v-5.547h3.088c2.451 0 4.861-1.753 4.861-4.547 0-2.794-2.41-4.548-4.861-4.548Zm-28.895 12.98c-1.528 0-2.806-1.264-2.806-3 0-1.755 1.278-3.037 2.806-3.037 1.509 0 2.692 1.283 2.692 3.038 0 1.735-1.183 3-2.692 3Zm2.54-6.886h-.077c-.496-.585-1.451-1.113-2.654-1.113-2.52 0-4.83 2.189-4.83 5 0 2.792 2.31 4.962 4.83 4.962 1.203 0 2.158-.529 2.654-1.132h.076v.716c0 1.907-1.03 2.925-2.692 2.925-1.355 0-2.195-.962-2.539-1.773l-1.928.792c.553 1.32 2.023 2.944 4.468 2.944 2.597 0 4.792-1.51 4.792-5.19v-8.942h-2.1v.81Zm3.628 8.547h2.214V21.223h-2.214v14.642Zm5.479-4.83c-.057-1.925 1.509-2.906 2.635-2.906.879 0 1.623.434 1.872 1.057l-4.507 1.849Zm6.874-1.66c-.42-1.113-1.699-3.17-4.315-3.17-2.597 0-4.755 2.019-4.755 4.98 0 2.793 2.139 4.982 5.003 4.982 2.31 0 3.647-1.396 4.201-2.208l-1.719-1.132c-.573.83-1.355 1.378-2.482 1.378-1.126 0-1.929-.51-2.443-1.51l6.739-2.755-.229-.566Zm-53.697-1.642v2.113h5.117c-.153 1.189-.554 2.057-1.165 2.66-.745.736-1.91 1.548-3.952 1.548-3.15 0-5.614-2.51-5.614-5.623 0-3.113 2.463-5.623 5.614-5.623 1.699 0 2.94.661 3.856 1.51l1.51-1.49c-1.28-1.208-2.98-2.133-5.366-2.133-4.316 0-7.944 3.472-7.944 7.736 0 4.264 3.628 7.736 7.944 7.736 2.329 0 4.086-.755 5.46-2.17 1.413-1.396 1.852-3.358 1.852-4.944 0-.49-.038-.942-.115-1.32h-7.197Zm13.13 6.472c-1.527 0-2.845-1.246-2.845-3.02 0-1.792 1.318-3.018 2.845-3.018 1.528 0 2.845 1.226 2.845 3.019 0 1.773-1.317 3.019-2.845 3.019Zm0-8c-2.788 0-5.06 2.094-5.06 4.98 0 2.869 2.272 4.982 5.06 4.982s5.06-2.113 5.06-4.981c0-2.887-2.272-4.981-5.06-4.981Zm11.038 8c-1.527 0-2.845-1.246-2.845-3.02 0-1.792 1.318-3.018 2.845-3.018 1.528 0 2.845 1.226 2.845 3.019 0 1.773-1.317 3.019-2.845 3.019Zm0-8c-2.788 0-5.06 2.094-5.06 4.98 0 2.869 2.272 4.982 5.06 4.982s5.06-2.113 5.06-4.981c0-2.887-2.272-4.981-5.06-4.981Z"/></g><defs><clipPath id="clip0_144_642"><path fill="#fff" d="M0 .307h160v46.847H0z"/></clipPath></defs></svg>