<svg xmlns="http://www.w3.org/2000/svg" width="101" height="102" fill="none" viewBox="0 0 101 102"><g filter="url(#filter0_f_549_1347)"><circle cx="59.107" cy="35.268" r="30.193" fill="#080748" fill-opacity=".3"/></g><path stroke="#fff" stroke-linecap="round" stroke-width=".377" d="M16.899 42.716 11.57 30.277"/><path fill="url(#paint0_linear_549_1347)" d="M93.186 60.493c7.998 1.03 13.12 5.97 14.472 7.344l-1.608 13.906-32.658-3.25-17.376-16.558c2.52-1.972 8.31-5.32 11.315-2.925 3.58 2.852 7.542 4.209 11.212 3.283-1.14-1.588-3.387-5.881-3.256-10.342.045-1.555.602-2.895 1.081-3.595 1.475-2.158 5.69-2.569 7.504 2.465 2.639 6.755 3.975 8.722 9.314 9.672Z"/><path fill="url(#paint1_linear_549_1347)" d="M93.186 60.493c7.998 1.03 13.12 5.97 14.472 7.344l-1.608 13.906-32.658-3.25-17.376-16.558c2.52-1.972 8.31-5.32 11.315-2.925 3.58 2.852 7.542 4.209 11.212 3.283-1.14-1.588-3.387-5.881-3.256-10.342.045-1.555.602-2.895 1.081-3.595 1.475-2.158 5.69-2.569 7.504 2.465 2.639 6.755 3.975 8.722 9.314 9.672Z"/><path fill="url(#paint2_linear_549_1347)" d="M83.873 50.82c2.639 6.754 3.975 8.722 9.314 9.672l-14.643 1.8c-1.14-1.589-3.388-5.881-3.256-10.342.045-1.556.602-2.895 1.081-3.596 1.475-2.158 5.69-2.568 7.504 2.465Z"/><path fill="url(#paint3_linear_549_1347)" d="M56.012 61.933c2.52-1.972 8.311-5.319 11.316-2.925 2.749 2.19 5.724 3.499 8.619 3.569l-13.69 5.308-6.245-5.952Z"/><path fill="#260C6F" d="M23.976 32.125a4.15 4.15 0 0 1 2.441-5.508l27.234-9.668 17.661 38.179a3.018 3.018 0 0 1-1.589 4.057L44.142 69.729a4.15 4.15 0 0 1-5.411-2.239L23.976 32.125Z"/><path fill="url(#paint4_linear_549_1347)" d="M24.607 30.344a3.018 3.018 0 0 1 1.723-3.993l25.472-9.559a3.018 3.018 0 0 1 3.837 1.645l15.17 35.697a3.018 3.018 0 0 1-1.637 3.974l-25.34 10.337a3.018 3.018 0 0 1-3.923-1.627L24.607 30.344Z"/><circle cx="47.1" cy="41.594" r="10.836" fill="url(#paint5_linear_549_1347)"/><g filter="url(#filter1_f_549_1347)"><circle cx="47.102" cy="41.575" r="7.293" fill="#7D30E0"/></g><path fill="url(#paint6_linear_549_1347)" d="M50.517 55.39c-5.209 4.255 4.944 14.001 9.159 17.579l.655-10.58c-3.512-5.22-6.329-8.894-9.814-7Z"/><path fill="url(#paint7_linear_549_1347)" d="M50.517 55.39c-5.209 4.255 4.944 14.001 9.159 17.579l.655-10.58c-3.512-5.22-6.329-8.894-9.814-7Z"/><path fill="url(#paint8_linear_549_1347)" d="M55.096 65.084c2.024 9.281 9.895 13.877 14.106 15.71l-.37-11.637c-2.549-1.12-5.279-3.572-6.013-8.344-.649-5.628-9.803-5.259-7.723 4.27Z"/><path fill="url(#paint9_linear_549_1347)" d="M55.096 65.084c2.024 9.281 9.895 13.877 14.106 15.71l-.37-11.637c-2.549-1.12-5.279-3.572-6.013-8.344-.649-5.628-9.803-5.259-7.723 4.27Z"/><path fill="#FFAC88" d="m93.215 85.78 11.725 6.754 1.565-17.49c-12.356-10.312-24.803-6.178-29.37-1.57-3.772.259-5.405-1.702-5.95-3.317-.385-1.142-.674-2.405-.903-2.922-.571-1.756-1.778-2.888-3.364-2.936-4.221-.126-5.735 5.966-.654 14.412 6.433 8.677 21.719 8.538 26.95 7.07Z"/><path fill="url(#paint10_linear_549_1347)" d="m93.215 85.78 11.725 6.754 1.543-16.766c-12.355-10.311-24.78-6.902-29.349-2.294-3.77.259-5.404-1.702-5.948-3.317-.386-1.142-.675-2.405-.904-2.922-.571-1.756-1.778-2.888-3.364-2.936-4.221-.126-5.735 5.966-.654 14.412 6.433 8.677 21.719 8.538 26.95 7.07Z"/><path fill="url(#paint11_linear_549_1347)" d="m93.218 85.773 11.725 6.754 1.565-17.49c-12.356-10.312-24.803-6.178-29.37-1.57-.68 1.18-.956 2.94.03 4.803 1.486 2.813 5.85 5.86 16.05 7.503Z"/><path fill="#fff" d="m26.392 34.638 1.417 2.666a1.995 1.995 0 0 0 2.257.996 1.992 1.992 0 0 0-.88 2.36l1.074 3.161-1.588-3.04a1.918 1.918 0 0 0-2.223-.958 1.99 1.99 0 0 0 .862-2.305l-.919-2.88Z"/><path stroke="#fff" stroke-width=".377" d="M56.35 49.107a11.876 11.876 0 0 0 2.655-8.093M45.718 29.751a11.88 11.88 0 0 0-7.872 4.324 11.894 11.894 0 0 0-2.47 9.677" opacity=".5"/><path fill="url(#paint12_linear_549_1347)" d="M41.066 69.561 72.008 56.94 56.114 19.575 35.118 55.463l5.948 14.098Z" opacity=".6"/><path fill="url(#paint13_linear_549_1347)" d="m54.334 46.978-3.332 1.372-7.049-2.092-.758-1.842 2.88-1.185c.47-.194.816-.46 1.041-.801.221-.352.307-.746.258-1.183l-4.689 1.93-.517-1.256 4.689-1.93c-.277-.356-.616-.575-1.016-.659-.4-.083-.834-.028-1.303.164l-2.88 1.186-.772-1.875 8.34-3.433.771 1.876-1.825.751c.39.218.733.56 1.029 1.025l1.306-.537.517 1.256-1.29.53a3.77 3.77 0 0 1-.041 1.897 4.006 4.006 0 0 1-.898 1.623c-.43.477-.934.841-1.51 1.091l7.05 2.092Z"/><circle cx="28.213" cy="39.226" r="3.852" fill="url(#paint14_diamond_549_1347)" transform="rotate(-19.977 28.213 39.226)"/><path fill="url(#paint15_linear_549_1347)" d="M17.905 7.878c8.433-7.985 8.411-17.83 7.871-22.497.374.03 1.38.377 5.5.697 1.784 10.12-2.224 19.34-6.395 24.84-3.337 4.398-7.218 7.09-8.74 7.887-4.827 2.524-8.386-3.364-3.815-6.618.93-.753 2.438-1.7 5.58-4.31Z"/><path fill="url(#paint16_linear_549_1347)" d="M12.323 12.18c.93-.754 2.438-1.701 5.58-4.31a22.829 22.829 0 0 0 3.433-3.523L26.92 7.87a32.698 32.698 0 0 1-2.042 3.04c-3.337 4.398-7.218 7.091-8.74 7.888-4.827 2.524-8.386-3.365-3.815-6.619Z" opacity=".8"/><path fill="url(#paint17_linear_549_1347)" d="M14.57 19.954c.93-.93 2.709-2.919 4.89-6.41 3.071-5.304 3.706-8.076 4.872-11.494 1.428-4.183 3.802-8.955 7.844-8.67 2.37 9.998-.498 18.483-3.863 24.018-2.268 4.129-5.405 7.327-7.686 9.012-5.497 3.629-10.913-1.607-6.057-6.456Z"/><path fill="url(#paint18_linear_549_1347)" d="M20.634 26.398c-5.497 3.63-10.913-1.607-6.057-6.456 5.767-5.783 8.774-14.155 9.557-17.619.41-1.676 1.598-6.935 1.598-10.95 1.302-1.945 4.052-1.614 6.25 1.194 2.368 9.998-.297 19.284-3.662 24.819-2.268 4.13-5.405 7.328-7.686 9.012Z"/><path fill="url(#paint19_linear_549_1347)" d="M52.677 8.892c7.249-8.45 7.477-19.995 4.267-28.778l-31.885-2.48c1.596 2.103 2.386 6.6 2.797 12.027.148 5.2-1.953 9.984-2.507 12.31-5.156 13.707-1.537 21.378-.328 25.333 0 0 .37-.522 1.08-.862l8.179-3.078c-.41-.953-1.68-3.516-1.267-7.645.945-9.442 10.383-7.616 7.208 2.581-1.309 4.203-2.029 7.945 1.005 9.339 4.918 2.259 10.03-5.195 11.451-18.747Z"/><path fill="url(#paint20_linear_549_1347)" d="M52.677 8.892c7.249-8.45 7.477-19.995 4.267-28.778l-31.885-2.48c1.596 2.103 2.386 6.6 2.797 12.027.148 5.2-1.953 9.984-2.507 12.31-5.156 13.707-1.537 21.378-.328 25.333 0 0 .37-.522 1.08-.862l8.179-3.078c-.41-.953-1.68-3.516-1.267-7.645 1.267-9.978 10.316-7.402 7.208 2.581-1.309 4.203-2.027 7.905.994 9.384 5.131 2.357 10.283-6.175 11.462-18.792Z"/><path fill="url(#paint21_linear_549_1347)" d="M34.236 23.325c-.41-.952-1.747-3.293-1.22-7.173l2.748-26.49h-7.906c.148 5.2-1.953 9.984-2.506 12.31-5.157 13.707-1.538 21.378-.33 25.333 0 0 .371-.522 1.082-.862l8.132-3.118Z"/><path fill="url(#paint22_linear_549_1347)" d="M41.24 27.64c4.957 2.277 9.899-4.808 11.514-18.92 0 0-13.113-2.95-11.907 3.306.358 2.158.08 4.02-.599 6.203-1.319 4.236-2.067 8.005.992 9.41Z" opacity=".8"/><path fill="#fff" d="M23.161 45.993a4.392 4.392 0 0 0 4.708 2.718 4.392 4.392 0 0 0-2.718 4.708 4.392 4.392 0 0 0-4.708-2.718 4.392 4.392 0 0 0 2.718-4.708ZM62.37 15.768a2.591 2.591 0 0 0 2.488 2.023 2.591 2.591 0 0 0-2.023 2.488 2.591 2.591 0 0 0-2.488-2.023 2.591 2.591 0 0 0 2.023-2.488ZM77.142 31.057a3.905 3.905 0 0 0 3.652 3.165 3.904 3.904 0 0 0-3.165 3.652 3.905 3.905 0 0 0-3.652-3.165 3.904 3.904 0 0 0 3.165-3.652Z"/><path stroke="#fff" stroke-linecap="round" stroke-width=".377" d="m69.977 40.56-4.563-12.74M33.159 65.46l-4.246-8.882M65.438 8.469l-1.465-4.7M69.312 20.85l-2.974-9.385"/><defs><linearGradient id="paint0_linear_549_1347" x1="66.403" x2="102.169" y1="70.992" y2="68.7" gradientUnits="userSpaceOnUse"><stop stop-color="#B86250"/><stop offset=".752" stop-color="#FFB185"/></linearGradient><linearGradient id="paint1_linear_549_1347" x1="66.403" x2="102.169" y1="70.992" y2="68.7" gradientUnits="userSpaceOnUse"><stop stop-color="#D77661"/><stop offset=".752" stop-color="#FFB185"/></linearGradient><linearGradient id="paint2_linear_549_1347" x1="69.865" x2="81.322" y1="56.448" y2="57.894" gradientUnits="userSpaceOnUse"><stop stop-color="#fff"/><stop offset=".88" stop-color="#fff" stop-opacity="0"/></linearGradient><linearGradient id="paint3_linear_549_1347" x1="62.45" x2="69.93" y1="58.546" y2="65.001" gradientUnits="userSpaceOnUse"><stop stop-color="#BA5E5E"/><stop offset="1" stop-color="#D37E7E" stop-opacity="0"/></linearGradient><linearGradient id="paint4_linear_549_1347" x1="19.282" x2="71.422" y1="31.555" y2="55.962" gradientUnits="userSpaceOnUse"><stop offset=".062" stop-color="#B8FFFD"/><stop offset=".452" stop-color="#73ABFF"/><stop offset="1" stop-color="#A620D6"/></linearGradient><linearGradient id="paint5_linear_549_1347" x1="56.422" x2="36.264" y1="51.141" y2="30.758" gradientUnits="userSpaceOnUse"><stop stop-color="#3E33B3"/><stop offset="1" stop-color="#6825D6"/></linearGradient><linearGradient id="paint6_linear_549_1347" x1="50.185" x2="60.616" y1="54.64" y2="68.738" gradientUnits="userSpaceOnUse"><stop stop-color="#FFC49A"/><stop offset="1" stop-color="#E97B63"/></linearGradient><linearGradient id="paint7_linear_549_1347" x1="46.445" x2="56.418" y1="63.889" y2="61.801" gradientUnits="userSpaceOnUse"><stop stop-color="#fff"/><stop offset="1" stop-color="#FFC49A" stop-opacity="0"/></linearGradient><linearGradient id="paint8_linear_549_1347" x1="56.542" x2="68.965" y1="56.758" y2="76.48" gradientUnits="userSpaceOnUse"><stop stop-color="#FFC49A"/><stop offset="1" stop-color="#EF937F"/></linearGradient><linearGradient id="paint9_linear_549_1347" x1="53.919" x2="64.515" y1="69.075" y2="66.216" gradientUnits="userSpaceOnUse"><stop stop-color="#fff"/><stop offset="1" stop-color="#FFC49A" stop-opacity="0"/></linearGradient><linearGradient id="paint10_linear_549_1347" x1="62.553" x2="74.269" y1="75.758" y2="73.411" gradientUnits="userSpaceOnUse"><stop stop-color="#fff"/><stop offset="1" stop-color="#FFC49A" stop-opacity="0"/></linearGradient><linearGradient id="paint11_linear_549_1347" x1="81.322" x2="82.059" y1="64.605" y2="77.346" gradientUnits="userSpaceOnUse"><stop stop-color="#fff"/><stop offset="1" stop-color="#FFC49A" stop-opacity="0"/></linearGradient><linearGradient id="paint12_linear_549_1347" x1="53.329" x2="56.876" y1="21.557" y2="61.698" gradientUnits="userSpaceOnUse"><stop stop-color="#69DBF9"/><stop offset=".351" stop-color="#FEC0FF" stop-opacity=".37"/><stop offset="1" stop-color="#fff" stop-opacity="0"/></linearGradient><linearGradient id="paint13_linear_549_1347" x1="54.755" x2="41.011" y1="50.535" y2="29.091" gradientUnits="userSpaceOnUse"><stop stop-color="#3F91DC"/><stop offset="1" stop-color="#6CF8FB"/></linearGradient><linearGradient id="paint15_linear_549_1347" x1="22.422" x2="17.898" y1="-14.824" y2="20.647" gradientUnits="userSpaceOnUse"><stop stop-color="#FFC49A"/><stop offset="1" stop-color="#EC8989"/></linearGradient><linearGradient id="paint16_linear_549_1347" x1="8.803" x2="21.713" y1="10.038" y2="16.967" gradientUnits="userSpaceOnUse"><stop stop-color="#fff"/><stop offset=".618" stop-color="#fff" stop-opacity="0"/></linearGradient><linearGradient id="paint17_linear_549_1347" x1="26.69" x2="18.873" y1="-4.75" y2="27.265" gradientUnits="userSpaceOnUse"><stop stop-color="#FFB99D"/><stop offset="1" stop-color="#EF8F88"/></linearGradient><linearGradient id="paint18_linear_549_1347" x1="15.325" x2="20.61" y1="19.352" y2="20.401" gradientUnits="userSpaceOnUse"><stop stop-color="#fff" stop-opacity=".6"/><stop offset="1" stop-color="#fff" stop-opacity="0"/></linearGradient><linearGradient id="paint19_linear_549_1347" x1="35.893" x2="39.483" y1="-28.563" y2="26.703" gradientUnits="userSpaceOnUse"><stop stop-color="#FFB89A"/><stop offset="0" stop-color="#FFC49A"/><stop offset="1" stop-color="#F38D8D"/></linearGradient><linearGradient id="paint20_linear_549_1347" x1="39.255" x2="59.862" y1="-1.122" y2="10.831" gradientUnits="userSpaceOnUse"><stop stop-color="#FF9D9D" stop-opacity="0"/><stop offset=".469" stop-color="#fff" stop-opacity=".19"/><stop offset="1" stop-color="#fff"/></linearGradient><linearGradient id="paint21_linear_549_1347" x1="20.63" x2="31.614" y1="23.313" y2="20.058" gradientUnits="userSpaceOnUse"><stop stop-color="#fff"/><stop offset="1" stop-color="#fff" stop-opacity="0"/></linearGradient><linearGradient id="paint22_linear_549_1347" x1="38.128" x2="48.142" y1="24.766" y2="18.313" gradientUnits="userSpaceOnUse"><stop stop-color="#fff"/><stop offset=".445" stop-color="#fff" stop-opacity=".25"/><stop offset=".875" stop-color="#fff" stop-opacity="0"/></linearGradient><filter id="filter0_f_549_1347" width="144.21" height="144.21" x="-12.998" y="-36.837" color-interpolation-filters="sRGB" filterUnits="userSpaceOnUse"><feFlood flood-opacity="0" result="BackgroundImageFix"/><feBlend in="SourceGraphic" in2="BackgroundImageFix" mode="normal" result="shape"/><feGaussianBlur result="effect1_foregroundBlur_549_1347" stdDeviation="20.956"/></filter><filter id="filter1_f_549_1347" width="20.622" height="20.622" x="36.791" y="31.263" color-interpolation-filters="sRGB" filterUnits="userSpaceOnUse"><feFlood flood-opacity="0" result="BackgroundImageFix"/><feBlend in="SourceGraphic" in2="BackgroundImageFix" mode="normal" result="shape"/><feGaussianBlur result="effect1_foregroundBlur_549_1347" stdDeviation="1.509"/></filter><radialGradient id="paint14_diamond_549_1347" cx="0" cy="0" r="1" gradientTransform="rotate(90 -5.506 33.72) scale(3.85186)" gradientUnits="userSpaceOnUse"><stop stop-color="#fff"/><stop offset="1" stop-color="#fff" stop-opacity="0"/></radialGradient></defs></svg>