<svg xmlns="http://www.w3.org/2000/svg" width="17" height="16" fill="#fff" viewBox="0 0 17 16"><circle cx="8.961" cy="8" r="7.5" stroke="#757C8D"/><path fill="#757C8D" d="M12.086 4.77a.498.498 0 0 0-.496-.497H6.569a.498.498 0 0 0-.496.497c0 .272.223.496.496.496h1.439c.72.005 1.354.461 1.582 1.14H6.57a.498.498 0 0 0-.496.497c0 .273.223.496.496.496H9.59a1.72 1.72 0 0 1-.411.69c-.308.317-.73.496-1.171.5h-1.44a.481.481 0 0 0-.341.834l3.592 3.394a.49.49 0 0 0 .7-.025.478.478 0 0 0-.01-.675c-.006-.005-.01-.005-.01-.01L7.813 9.582h.189a2.665 2.665 0 0 0 1.875-.789c.382-.377.64-.863.73-1.394h.982a.498.498 0 0 0 .496-.496.498.498 0 0 0-.496-.496h-.983a2.303 2.303 0 0 0-.54-1.141h1.518a.499.499 0 0 0 .5-.496Z"/></svg>