<svg xmlns="http://www.w3.org/2000/svg" width="44" height="27" fill="none" viewBox="0 0 44 27"><path fill="#555E79" d="m8.55 16.862 2.328 1.503 25.131-.311-4.249-9.897-3.471-4.3H10.878L8.549 16.861Z"/><path fill="#555E79" stroke="#555E79" stroke-width=".609" d="M34.004 10.688v3.813l5.903-.88-5.903-2.933Z"/><mask id="path-3-outside-1_880_40312" width="44" height="14" x=".214" y="11.888" fill="#000" maskUnits="userSpaceOnUse"><path fill="#fff" d="M.214 11.888h44v14h-44z"/><path d="M2.366 17.461c0-1.005.304-1.786.914-2.345.609-.558 1.451-.837 2.528-.837 1.086 0 2.203.101 3.35.304l-.35 2.68c-1.27-.253-2.102-.38-2.498-.38-.396 0-.594.122-.594.365 0 .091.03.157.092.198.06.03.106.056.137.076.03.02.086.046.167.076.091.03.163.061.213.092.061.02.244.096.548.228.315.122.549.224.701.305.162.07.38.193.655.365.792.518 1.188 1.28 1.188 2.284 0 1.006-.3 1.787-.899 2.346-.599.548-1.462.822-2.589.822-1.116 0-2.213-.137-3.289-.411l.213-2.574c1.36.345 2.28.518 2.757.518.314 0 .472-.112.472-.335a.29.29 0 0 0-.122-.244 1.525 1.525 0 0 0-.335-.198 8.473 8.473 0 0 0-.64-.274c-.284-.122-.523-.223-.716-.304a5.059 5.059 0 0 1-.685-.412c-.812-.558-1.218-1.34-1.218-2.345Zm15.622 6.427H14.79l-.305-1.462h-1.69l-.32 1.462h-3.06l1.964-9.457h4.644l1.965 9.457Zm-3.731-3.427-.579-3.167h-.06l-.595 3.167h1.234Zm12.166-6.03-1.827 9.457H19.92l-1.934-9.457h3.517l.731 5.802h.183l.655-5.802h3.35Zm6.634 9.457h-6.03V14.43h6.244l-.214 2.513h-2.771v1.142h2.421v2.193h-2.421v1.294h2.985l-.214 2.315Zm8.306-6.411c0 .609-.102 1.096-.305 1.462-.193.355-.497.67-.914.944l1.416 4.005h-3.365l-.944-3.26h-.244v3.26h-3.121V14.43h4.035c1.178 0 2.046.249 2.604.746.558.487.838 1.254.838 2.3Zm-4.036 1.294c.234 0 .396-.066.487-.198.102-.142.153-.386.153-.731s-.051-.584-.153-.716c-.101-.132-.258-.198-.472-.198h-.396v1.843h.381Z"/></mask><g filter="url(#filter0_i_880_40312)"><path fill="#fff" d="M2.366 17.461c0-1.005.304-1.786.914-2.345.609-.558 1.451-.837 2.528-.837 1.086 0 2.203.101 3.35.304l-.35 2.68c-1.27-.253-2.102-.38-2.498-.38-.396 0-.594.122-.594.365 0 .091.03.157.092.198.06.03.106.056.137.076.03.02.086.046.167.076.091.03.163.061.213.092.061.02.244.096.548.228.315.122.549.224.701.305.162.07.38.193.655.365.792.518 1.188 1.28 1.188 2.284 0 1.006-.3 1.787-.899 2.346-.599.548-1.462.822-2.589.822-1.116 0-2.213-.137-3.289-.411l.213-2.574c1.36.345 2.28.518 2.757.518.314 0 .472-.112.472-.335a.29.29 0 0 0-.122-.244 1.525 1.525 0 0 0-.335-.198 8.473 8.473 0 0 0-.64-.274c-.284-.122-.523-.223-.716-.304a5.059 5.059 0 0 1-.685-.412c-.812-.558-1.218-1.34-1.218-2.345Zm15.622 6.427H14.79l-.305-1.462h-1.69l-.32 1.462h-3.06l1.964-9.457h4.644l1.965 9.457Zm-3.731-3.427-.579-3.167h-.06l-.595 3.167h1.234Zm12.166-6.03-1.827 9.457H19.92l-1.934-9.457h3.517l.731 5.802h.183l.655-5.802h3.35Zm6.634 9.457h-6.03V14.43h6.244l-.214 2.513h-2.771v1.142h2.421v2.193h-2.421v1.294h2.985l-.214 2.315Zm8.306-6.411c0 .609-.102 1.096-.305 1.462-.193.355-.497.67-.914.944l1.416 4.005h-3.365l-.944-3.26h-.244v3.26h-3.121V14.43h4.035c1.178 0 2.046.249 2.604.746.558.487.838 1.254.838 2.3Zm-4.036 1.294c.234 0 .396-.066.487-.198.102-.142.153-.386.153-.731s-.051-.584-.153-.716c-.101-.132-.258-.198-.472-.198h-.396v1.843h.381Z"/></g><path fill="#555E79" d="m3.28 15.116-1.22-1.33 1.22 1.33Zm5.878-.533 1.788.234a1.804 1.804 0 0 0-1.474-2.01l-.314 1.776Zm-.35 2.68-.354 1.769a1.804 1.804 0 0 0 2.142-1.535l-1.789-.234Zm-3 .183-1.001 1.5c.062.042.127.08.194.113l.807-1.613Zm.137.076-1.001 1.501 1-1.5Zm.167.076-.633 1.69.063.021.57-1.71Zm.213.092-.928 1.546c.113.068.233.123.358.165l.57-1.711Zm.548.228-.717 1.655.066.027.651-1.682Zm.701.305-.849 1.591c.041.022.083.043.126.061l.723-1.652Zm.655.365.987-1.51a1.435 1.435 0 0 0-.026-.016l-.961 1.526Zm.29 4.63 1.217 1.33a.902.902 0 0 0 .012-.011l-1.23-1.32Zm-5.879.41L.842 23.48a1.804 1.804 0 0 0 1.353 1.897l.445-1.748Zm.213-2.573.444-1.748a1.804 1.804 0 0 0-2.241 1.6l1.797.148Zm3.107-.06-1.174 1.369c.03.025.06.05.092.073l1.082-1.443Zm-.335-.199-.807 1.614.044.02.763-1.634Zm-.64-.274-.71 1.658.05.021.66-1.679Zm-.716-.304-.772 1.63.073.032.7-1.662Zm-.685-.412 1.027-1.483-.005-.003-1.022 1.486Zm.586-2.345c0-.617.171-.87.328-1.015l-2.437-2.66C1 14.76.562 16.07.562 17.462H4.17Zm.328-1.015c.186-.17.544-.364 1.31-.364v-3.607c-1.388 0-2.715.365-3.747 1.312l2.437 2.659Zm1.31-.364c.973 0 1.985.091 3.035.277l.63-3.552a21.011 21.011 0 0 0-3.665-.332v3.607Zm1.561-1.733-.35 2.68 3.577.468.35-2.68-3.577-.468Zm1.792 1.146c-1.228-.246-2.243-.416-2.85-.416v3.607c.183 0 .833.084 2.143.346l.707-3.537Zm-2.85-.416c-.325 0-.872.04-1.392.359a2.103 2.103 0 0 0-1.007 1.81H7.52a1.5 1.5 0 0 1-.71 1.262c-.321.198-.572.176-.5.176V15.08Zm-2.399 2.17c0 .524.206 1.239.895 1.698l2.001-3.002c.245.163.443.394.569.665.118.257.143.488.143.638H3.912Zm1.089 1.81a.68.68 0 0 1-.057-.036l2.001-3.002a3.096 3.096 0 0 0-.33-.188L5 19.059Zm-.057-.036c.22.147.452.233.535.264l1.266-3.377.01.005a1.473 1.473 0 0 1 .19.107l-2.001 3.001Zm.598.287-.019-.008a1.038 1.038 0 0 1-.126-.066l1.856-3.093a2.883 2.883 0 0 0-.57-.256L5.541 19.31Zm.213.09c-.034-.01-.05-.017-.025-.007l.084.034c.08.033.193.082.342.146l1.435-3.31c-.266-.115-.54-.233-.695-.284L5.755 19.4Zm.467.2c.298.116.45.186.503.214l1.698-3.183a8.545 8.545 0 0 0-.898-.395L6.222 19.6Zm.629.275c.039.017.168.083.417.24l1.922-3.053a7.057 7.057 0 0 0-.893-.492l-1.446 3.305Zm.39.223c.246.16.372.333.372.774h3.607c0-1.568-.666-2.918-2.004-3.793l-1.974 3.019Zm.372.774c0 .628-.172.884-.325 1.026l2.46 2.639c1.046-.975 1.472-2.281 1.472-3.665H7.613ZM7.3 21.887c-.156.143-.519.35-1.37.35v3.607c1.401 0 2.764-.342 3.806-1.296L7.3 21.888Zm-1.37.35c-.968 0-1.915-.12-2.845-.356l-.89 3.496c1.222.311 2.468.467 3.734.467v-3.608Zm-1.492 1.54.213-2.573-3.595-.298-.214 2.574 3.596.298Zm-2.028-.974c1.325.337 2.46.574 3.2.574v-3.608c-.216 0-.918-.108-2.313-.462l-.887 3.497Zm3.2.574c.315 0 .876-.046 1.397-.417a2.09 2.09 0 0 0 .878-1.722H4.278c0-.155.028-.378.142-.62.118-.252.297-.456.5-.6.364-.258.688-.249.69-.249v3.608Zm2.275-2.139c0-.67-.308-1.285-.843-1.687l-2.164 2.886a1.502 1.502 0 0 1-.44-.53 1.503 1.503 0 0 1-.16-.669h3.607Zm-.751-1.613a3.276 3.276 0 0 0-.746-.463L4.862 22.43c.038.017.05.025.043.021l-.035-.023a1.05 1.05 0 0 1-.084-.065l2.348-2.74Zm-.703-.442a10.102 10.102 0 0 0-.786-.34l-1.32 3.358c.271.106.425.174.493.209l1.613-3.227Zm-.735-.319c-.287-.122-.529-.226-.727-.309l-1.4 3.325.706.3 1.42-3.316Zm-.654-.276a3.38 3.38 0 0 1-.431-.265L2.557 21.29c.31.214.626.41.94.559l1.545-3.26Zm-.436-.268c-.311-.214-.436-.433-.436-.859H.562c0 1.585.687 2.93 2 3.832l2.044-2.973Zm13.382 5.568v1.803a1.804 1.804 0 0 0 1.766-2.17l-1.766.367Zm-3.198 0-1.766.368a1.804 1.804 0 0 0 1.766 1.435v-1.803Zm-.305-1.462 1.766-.368a1.804 1.804 0 0 0-1.766-1.436v1.804Zm-1.69 0v-1.804c-.848 0-1.581.59-1.762 1.418l1.762.386Zm-.32 1.462v1.803c.848 0 1.581-.59 1.762-1.418l-1.762-.385Zm-3.06 0-1.767-.367a1.804 1.804 0 0 0 1.766 2.17v-1.803Zm1.964-9.457v-1.804c-.855 0-1.593.6-1.766 1.437l1.766.367Zm4.644 0 1.766-.367a1.804 1.804 0 0 0-1.766-1.437v1.804Zm-1.766 6.03v1.804a1.804 1.804 0 0 0 1.774-2.128l-1.774.324Zm-.579-3.167 1.774-.324a1.804 1.804 0 0 0-1.774-1.48v1.804Zm-.06 0V15.49c-.869 0-1.614.618-1.774 1.471l1.773.333Zm-.595 3.167-1.772-.332a1.804 1.804 0 0 0 1.772 2.136v-1.804Zm4.965 1.623H14.79v3.607h3.198v-3.607Zm-1.432 1.436-.305-1.462-3.532.736.305 1.462 3.532-.736Zm-2.07-2.898h-1.691v3.608h1.69v-3.608Zm-3.453 1.418-.32 1.462 3.524.771.32-1.462-3.524-.77Zm1.442.044h-3.06v3.607h3.06v-3.607Zm-1.295 2.17 1.965-9.456-3.532-.734-1.965 9.457 3.532.733Zm.199-8.02h4.644v-3.607H11.38v3.608Zm2.878-1.436 1.965 9.457 3.532-.734-1.965-9.457-3.532.734Zm1.774 5.34-.578-3.168-3.55.648.58 3.168 3.548-.649Zm-2.353-4.648h-.06v3.607h.06V15.49Zm-1.834 1.471-.593 3.168 3.545.665.594-3.168-3.546-.665Zm1.18 5.304h1.233v-3.607h-1.234v3.607Zm13.399-7.834 1.77.342a1.803 1.803 0 0 0-1.77-2.146v1.804Zm-1.827 9.457v1.803c.864 0 1.607-.613 1.77-1.461l-1.77-.342Zm-4.675 0-1.768.361c.172.84.91 1.442 1.768 1.442v-1.803Zm-1.934-9.457v-1.804a1.804 1.804 0 0 0-1.768 2.165l1.767-.361Zm3.517 0 1.79-.226a1.804 1.804 0 0 0-1.79-1.578v1.804Zm.731 5.802-1.79.225c.114.902.881 1.579 1.79 1.579v-1.804Zm.183 0v1.804c.918 0 1.69-.69 1.792-1.602l-1.792-.202Zm.655-5.802v-1.804c-.918 0-1.69.69-1.793 1.602l1.793.202Zm1.579-.342-1.827 9.457 3.541.684 1.828-9.457-3.542-.684Zm-.056 7.995H19.92v3.607h4.675v-3.607Zm-2.908 1.442-1.934-9.457-3.535.723 1.934 9.457 3.535-.723Zm-3.701-7.291h3.517v-3.608h-3.518v3.608Zm1.728-1.579.73 5.802 3.58-.45-.731-5.803-3.58.451Zm2.52 7.38h.183V18.43h-.183v3.608Zm1.975-1.6.655-5.803-3.585-.404-.654 5.802 3.584.404Zm-1.137-4.201h3.35v-3.608h-3.35v3.608Zm9.984 7.653v1.803c.932 0 1.711-.71 1.796-1.638l-1.796-.165Zm-6.03 0h-1.804c0 .996.808 1.803 1.804 1.803v-1.803Zm0-9.457v-1.804c-.996 0-1.804.808-1.804 1.804h1.804Zm6.244 0 1.797.152a1.804 1.804 0 0 0-1.797-1.956v1.804Zm-.214 2.513v1.803c.937 0 1.718-.717 1.798-1.65l-1.798-.153Zm-2.771 0V15.14c-.996 0-1.804.807-1.804 1.804h1.804Zm0 1.142h-1.804c0 .996.808 1.803 1.804 1.803v-1.803Zm2.421 0h1.804c0-.996-.808-1.804-1.804-1.804v1.804Zm0 2.193v1.803c.996 0 1.804-.807 1.804-1.803h-1.804Zm-2.421 0v-1.804c-.996 0-1.804.807-1.804 1.804h1.804Zm0 1.294h-1.804c0 .996.808 1.804 1.804 1.804v-1.804Zm2.985 0 1.796.165a1.804 1.804 0 0 0-1.796-1.969v1.804Zm-.214.511h-6.03v3.607h6.03v-3.607Zm-4.226 1.804V14.43h-3.608v9.457h3.608Zm-1.804-7.653h6.244v-3.608h-6.244v3.608Zm4.446-1.957-.213 2.513 3.595.305.213-2.513-3.595-.305Zm1.584.862h-2.771v3.607h2.771V15.14Zm-4.575 1.804v1.142h3.608v-1.142h-3.608Zm1.804 2.945h2.421v-3.607h-2.421v3.607Zm.617-1.803v2.193h3.608v-2.193h-3.608Zm1.804.389h-2.421v3.607h2.421v-3.607Zm-4.225 1.804v1.294h3.608v-1.294h-3.608Zm1.804 3.098h2.985v-3.608h-2.985v3.608Zm1.188-1.97-.213 2.315 3.592.331.214-2.315-3.593-.33Zm9.584-2.468-1.577-.877-.008.016 1.585.86Zm-.914.944-.992-1.507a1.804 1.804 0 0 0-.708 2.108l1.7-.601Zm1.416 4.005v1.803a1.804 1.804 0 0 0 1.701-2.405l-1.7.602Zm-3.365 0-1.732.502c.223.77.93 1.301 1.732 1.301v-1.803Zm-.944-3.26 1.732-.501a1.804 1.804 0 0 0-1.732-1.302v1.804Zm-.244 0v-1.803c-.996 0-1.803.808-1.803 1.804h1.803Zm0 3.26v1.803c.996 0 1.804-.807 1.804-1.803h-1.804Zm-3.121 0h-1.804c0 .996.807 1.803 1.803 1.803v-1.803Zm0-9.457v-1.804c-.997 0-1.804.808-1.804 1.804h1.803Zm6.639.746-1.2 1.347.014.012 1.186-1.359Zm-2.71 3.396-1.468-1.048-.016.021 1.483 1.027Zm0-1.447-1.43 1.1 1.43-1.1Zm-.869-.198v-1.803c-.996 0-1.803.807-1.803 1.803h1.803Zm0 1.843h-1.803c0 .996.807 1.804 1.803 1.804V18.77Zm2.613-1.294c0 .207-.018.355-.038.454-.02.099-.041.134-.04.131l3.154 1.752c.404-.728.531-1.552.531-2.337H39.56Zm-.086.6c-.022.041-.095.15-.32.3l1.983 3.012c.607-.4 1.143-.92 1.507-1.59l-3.17-1.721Zm-1.03 2.407 1.417 4.005 3.401-1.203-1.416-4.005-3.401 1.203Zm3.117 1.6h-3.365v3.607h3.365v-3.607Zm-1.633 1.302-.944-3.26-3.464 1.005.944 3.259 3.465-1.004Zm-2.676-4.56h-.244v3.607h.244v-3.608Zm-2.047 1.803v3.259h3.607v-3.26h-3.607Zm1.803 1.455h-3.121v3.607h3.121v-3.607Zm-1.318 1.804V14.43h-3.607v9.457h3.607Zm-1.803-7.653h4.035v-3.608h-4.035v3.608Zm4.035 0c.977 0 1.32.215 1.404.289l2.4-2.694c-1.034-.92-2.426-1.203-3.804-1.203v3.608Zm1.418.301c.025.022.22.194.22.94h3.607c0-1.345-.363-2.705-1.455-3.658l-2.372 2.718Zm-2.012 4.039c.539 0 1.407-.161 1.97-.975l-2.966-2.054a1.39 1.39 0 0 1 .614-.496c.193-.078.339-.083.382-.083v3.608Zm1.955-.954c.449-.627.488-1.365.488-1.779h-3.607c0 .093-.008.11 0 .074a.803.803 0 0 1 .04-.13c.025-.065.07-.157.144-.261l2.935 2.096Zm.488-1.779c0-.391-.031-1.172-.526-1.815l-2.86 2.2a1.292 1.292 0 0 1-.171-.296.885.885 0 0 1-.049-.151c-.009-.044-.001-.032-.001.062h3.607Zm-.526-1.815c-.536-.697-1.3-.902-1.902-.902v3.607a1.1 1.1 0 0 1-.42-.09 1.335 1.335 0 0 1-.537-.416l2.859-2.2Zm-1.902-.902h-.396v3.607h.396v-3.607Zm-2.2 1.803v1.843h3.608v-1.843h-3.607Zm1.804 3.647h.381v-3.608h-.38v3.608Z" mask="url(#path-3-outside-1_880_40312)"/><mask id="path-5-outside-2_880_40312" width="39" height="14" x="2.315" y="-.474" fill="#000" maskUnits="userSpaceOnUse"><path fill="#fff" d="M2.315-.474h39v14h-39z"/><path d="M4.558 4.917c0-.903.264-1.63.792-2.177.528-.549 1.249-.823 2.163-.823.924 0 1.868.092 2.832.274l-.304 2.437c-1.006-.234-1.696-.35-2.072-.35-.477 0-.715.193-.715.578 0 .153.111.3.335.442.233.142.512.294.837.457.325.152.65.34.975.563.325.213.599.523.822.93.234.405.35.872.35 1.4 0 .965-.258 1.71-.776 2.239-.518.528-1.254.792-2.208.792a8.892 8.892 0 0 1-2.772-.442l.168-2.269c1.086.315 1.842.472 2.269.472.426 0 .64-.188.64-.563 0-.193-.117-.37-.35-.533a5.868 5.868 0 0 0-.823-.488c-.325-.162-.655-.35-.99-.563-.325-.213-.604-.523-.838-.929-.223-.406-.335-.888-.335-1.447Zm9.59 3.503c0 .315.066.548.199.7.132.153.345.229.64.229.304 0 .512-.071.623-.213.122-.153.183-.396.183-.731V2.07h2.62v6.487c0 1.086-.3 1.878-.899 2.375-.589.498-1.462.747-2.62.747-1.146 0-2.004-.244-2.573-.731-.558-.498-.837-1.285-.837-2.36V2.07h2.665v6.35Zm8.863.015h-.7v3.091h-2.559V2.07h3.091c1.087 0 1.894.248 2.422.746.528.497.792 1.314.792 2.452 0 1.137-.25 1.949-.747 2.436-.497.487-1.263.731-2.3.731Zm.29-2.056c.09-.172.136-.482.136-.929 0-.446-.05-.761-.152-.944-.102-.183-.305-.274-.61-.274h-.365v2.406h.427c.284 0 .472-.086.563-.259Zm8.632 5.147h-5.117V2.07h5.269l-.152 2.33H29.42v1.416h2.178v2.01H29.42v1.568h2.665l-.152 2.132Zm7.512-6.456c0 .568-.087 1.04-.259 1.416a2.921 2.921 0 0 1-.807 1.02l1.264 4.02h-2.817l-.945-3.41h-.35v3.41h-2.558V2.07h3.533c1.015 0 1.756.238 2.223.715.477.477.716 1.239.716 2.285Zm-3.518 1.446c.264 0 .452-.076.563-.228.112-.152.168-.427.168-.823 0-.406-.056-.685-.168-.837-.111-.163-.294-.244-.548-.244h-.41v2.132h.395Z"/></mask><g filter="url(#filter1_i_880_40312)"><path fill="#fff" d="M4.558 4.917c0-.903.264-1.63.792-2.177.528-.549 1.249-.823 2.163-.823.924 0 1.868.092 2.832.274l-.304 2.437c-1.006-.234-1.696-.35-2.072-.35-.477 0-.715.193-.715.578 0 .153.111.3.335.442.233.142.512.294.837.457.325.152.65.34.975.563.325.213.599.523.822.93.234.405.35.872.35 1.4 0 .965-.258 1.71-.776 2.239-.518.528-1.254.792-2.208.792a8.892 8.892 0 0 1-2.772-.442l.168-2.269c1.086.315 1.842.472 2.269.472.426 0 .64-.188.64-.563 0-.193-.117-.37-.35-.533a5.868 5.868 0 0 0-.823-.488c-.325-.162-.655-.35-.99-.563-.325-.213-.604-.523-.838-.929-.223-.406-.335-.888-.335-1.447Zm9.59 3.503c0 .315.066.548.199.7.132.153.345.229.64.229.304 0 .512-.071.623-.213.122-.153.183-.396.183-.731V2.07h2.62v6.487c0 1.086-.3 1.878-.899 2.375-.589.498-1.462.747-2.62.747-1.146 0-2.004-.244-2.573-.731-.558-.498-.837-1.285-.837-2.36V2.07h2.665v6.35Zm8.863.015h-.7v3.091h-2.559V2.07h3.091c1.087 0 1.894.248 2.422.746.528.497.792 1.314.792 2.452 0 1.137-.25 1.949-.747 2.436-.497.487-1.263.731-2.3.731Zm.29-2.056c.09-.172.136-.482.136-.929 0-.446-.05-.761-.152-.944-.102-.183-.305-.274-.61-.274h-.365v2.406h.427c.284 0 .472-.086.563-.259Zm8.632 5.147h-5.117V2.07h5.269l-.152 2.33H29.42v1.416h2.178v2.01H29.42v1.568h2.665l-.152 2.132Zm7.512-6.456c0 .568-.087 1.04-.259 1.416a2.921 2.921 0 0 1-.807 1.02l1.264 4.02h-2.817l-.945-3.41h-.35v3.41h-2.558V2.07h3.533c1.015 0 1.756.238 2.223.715.477.477.716 1.239.716 2.285Zm-3.518 1.446c.264 0 .452-.076.563-.228.112-.152.168-.427.168-.823 0-.406-.056-.685-.168-.837-.111-.163-.294-.244-.548-.244h-.41v2.132h.395Z"/></g><path fill="#555E79" d="m5.35 2.74 1.182 1.137L5.35 2.74Zm4.995-.549 1.628.204A1.64 1.64 0 0 0 10.65.58l-.305 1.611Zm-.304 2.437-.372 1.597a1.64 1.64 0 0 0 1.999-1.394l-1.627-.203Zm-2.452.67-.88 1.384.027.017.853-1.401Zm.837.457-.733 1.467.037.018.696-1.485Zm.975.563-.93 1.352.03.02.9-1.372Zm.822.93-1.437.79.015.027 1.422-.818Zm-.426 3.639L8.626 9.738l1.17 1.149Zm-4.98.35-1.635-.12a1.64 1.64 0 0 0 1.127 1.68l.508-1.56Zm.168-2.269.456-1.575A1.64 1.64 0 0 0 3.35 8.847l1.636.121Zm2.558-.624L6.578 9.67l.029.02.936-1.346Zm-.822-.488.733-1.467-.733 1.467Zm-.99-.563-.9 1.371.02.013.88-1.384Zm-.838-.929-1.437.79c.005.01.01.019.016.027l1.421-.817Zm1.305-1.447c0-.564.154-.853.334-1.04L4.169 1.602c-.876.91-1.25 2.072-1.25 3.315h3.28Zm.334-1.04c.157-.164.416-.32.98-.32V.277C6.25.277 5.068.67 4.17 1.602l2.363 2.275Zm.98-.32c.816 0 1.658.081 2.528.246L10.65.58A16.835 16.835 0 0 0 7.513.277v3.28Zm1.206-1.569-.305 2.436 3.255.407.305-2.436-3.255-.407Zm1.694 1.042c-.986-.229-1.852-.392-2.443-.392v3.28c.161 0 .676.07 1.7.307l.743-3.195Zm-2.443-.392c-.416 0-1.033.077-1.567.509-.601.486-.788 1.16-.788 1.71h3.28a.99.99 0 0 1-.08.371 1.192 1.192 0 0 1-.35.47c-.296.239-.555.22-.495.22v-3.28ZM5.614 4.856c0 1.03.747 1.605 1.094 1.826L8.47 3.914a.093.093 0 0 1 .012.008.921.921 0 0 1 .164.168c.112.149.249.413.249.766h-3.28ZM6.736 6.7c.283.172.604.346.957.523L9.16 4.288a10.037 10.037 0 0 1-.718-.391L6.736 6.699Zm.994.54c.236.112.484.253.742.43l1.858-2.702a8.511 8.511 0 0 0-1.208-.697L7.73 7.24Zm.771.45c.062.041.166.132.285.349l2.874-1.581c-.327-.596-.771-1.124-1.36-1.51L8.502 7.69Zm.3.376c.074.127.132.305.132.583h3.28c0-.777-.174-1.533-.568-2.218L8.801 8.065Zm.132.583c0 .67-.173.954-.307 1.09l2.342 2.297c.902-.92 1.246-2.129 1.246-3.387h-3.28Zm-.307 1.09c-.127.13-.39.3-1.037.3v3.28c1.26 0 2.47-.356 3.379-1.283L8.626 9.738Zm-1.037.3c-.77 0-1.523-.12-2.264-.36L4.31 12.796a10.53 10.53 0 0 0 3.28.523v-3.28Zm-1.136 1.32.167-2.27-3.27-.24-.168 2.268 3.27.242Zm-1.925-.815c1.068.31 2.035.537 2.726.537V7.8c-.163 0-.708-.087-1.813-.407l-.913 3.15Zm2.726.537c.418 0 1.038-.088 1.564-.55.564-.498.715-1.155.715-1.653h-3.28c0-.123.045-.499.396-.808.155-.137.312-.205.422-.238a.677.677 0 0 1 .183-.031v3.28Zm2.28-2.203c0-.953-.601-1.565-1.054-1.88L6.607 9.69s-.084-.056-.172-.19a1.143 1.143 0 0 1-.182-.623h3.28Zm-1.026-1.86a7.49 7.49 0 0 0-1.054-.628L5.987 9.323c.268.134.46.251.591.347l1.93-2.653ZM7.454 6.39a9.427 9.427 0 0 1-.843-.48l-1.76 2.768c.378.24.757.456 1.136.646L7.454 6.39Zm-.823-.467c-.07-.046-.184-.147-.316-.376L3.472 7.181c.335.584.78 1.103 1.36 1.483L6.63 5.922Zm-.3-.348c-.066-.12-.133-.318-.133-.657h-3.28c0 .779.157 1.544.538 2.237l2.874-1.58Zm9.28 3.562L14.33 8.11l-.01.011 1.29 1.014Zm.182-7.066V.43a1.64 1.64 0 0 0-1.64 1.64h1.64Zm2.62 0h1.64a1.64 1.64 0 0 0-1.64-1.64v1.64Zm-.899 8.862-1.048-1.261-.01.009 1.058 1.252Zm-5.193.016-1.09 1.224.023.02 1.067-1.244Zm-.837-8.878V.43a1.64 1.64 0 0 0-1.64 1.64h1.64Zm2.665 0h1.64a1.64 1.64 0 0 0-1.64-1.64v1.64Zm-1.64 6.35c0 .498.097 1.196.598 1.774l2.479-2.148c.12.14.171.27.19.339.018.064.013.083.013.035h-3.28Zm.598 1.774c.565.652 1.333.795 1.88.795v-3.28c-.044 0 .298-.01.599.337l-2.479 2.148Zm1.88.795c.47 0 1.33-.097 1.913-.84l-2.58-2.027c.18-.227.39-.334.52-.379.119-.04.182-.034.146-.034v3.28Zm1.904-.829c.47-.588.542-1.29.542-1.755h-3.28c0 .075-.007.079.003.036a.893.893 0 0 1 .174-.33l2.561 2.05Zm.542-1.755V2.07h-3.28v6.335h3.28Zm-1.64-4.695h2.62V.43h-2.62v3.28Zm.98-1.64v6.487h3.28V2.07h-3.28Zm0 6.487c0 .8-.215 1.037-.307 1.114l2.096 2.523c1.106-.918 1.49-2.265 1.49-3.637h-3.28Zm-.317 1.123c-.176.148-.604.359-1.561.359v3.28c1.357 0 2.675-.287 3.677-1.134L16.456 9.68Zm-1.561.359c-.956 0-1.358-.21-1.506-.337l-2.135 2.49c.988.848 2.302 1.127 3.64 1.127v-3.28Zm-1.483-.316c-.078-.07-.288-.317-.288-1.136h-3.28c0 1.334.347 2.66 1.386 3.585l2.182-2.449Zm-.288-1.136V2.07h-3.28v6.517h3.28Zm-1.64-4.877h2.665V.43h-2.665v3.28Zm1.024-1.64v6.35h3.28V2.07h-3.28Zm9.802 6.365v-1.64a1.64 1.64 0 0 0-1.64 1.64h1.64Zm0 3.091v1.64a1.64 1.64 0 0 0 1.64-1.64h-1.64Zm-2.558 0h-1.64c0 .906.734 1.64 1.64 1.64v-1.64Zm0-9.456V.43a1.64 1.64 0 0 0-1.64 1.64h1.64Zm5.558 5.634-1.147-1.172 1.147 1.172ZM23.3 6.379l-1.45-.767 1.45.767Zm-.015-1.873 1.434-.796-1.434.796Zm-.975-.274v-1.64a1.64 1.64 0 0 0-1.64 1.64h1.64Zm0 2.406h-1.64c0 .906.735 1.64 1.64 1.64v-1.64Zm.7.157h-.7v3.28h.7v-3.28Zm-2.34 1.64v3.091h3.28V8.435h-3.28Zm1.64 1.451h-2.558v3.28h2.558v-3.28Zm-.918 1.64V2.07h-3.28v9.456h3.28Zm-1.64-7.816h3.091V.43h-3.09v3.28Zm3.091 0c.872 0 1.195.203 1.297.3l2.25-2.388C25.436.723 24.144.43 22.843.43v3.28Zm1.297.3c.052.049.276.321.276 1.258h3.28c0-1.338-.303-2.7-1.306-3.646L24.14 4.01Zm.276 1.258c0 .963-.22 1.232-.253 1.264l2.295 2.344c.962-.943 1.239-2.298 1.239-3.608h-3.28Zm-.253 1.264c-.07.069-.339.263-1.152.263v3.28c1.258 0 2.522-.293 3.447-1.2l-2.295-2.343Zm.587.615c.298-.565.327-1.243.327-1.697h-3.28c0 .085-.002.154-.005.21a1.433 1.433 0 0 1-.012.118c-.003.023-.004.02.003-.002a.862.862 0 0 1 .068-.164l2.899 1.535Zm.327-1.697c0-.476-.037-1.163-.358-1.74L21.85 5.303a.812.812 0 0 1-.068-.155c-.007-.023-.006-.028-.003-.008s.008.055.011.11c.004.052.006.119.006.2h3.28Zm-.358-1.74c-.513-.923-1.445-1.118-2.043-1.118v3.28c-.004 0-.034 0-.081-.009a.912.912 0 0 1-.211-.067c-.199-.09-.4-.255-.533-.493L24.72 3.71Zm-2.043-1.118h-.366v3.28h.366v-3.28Zm-2.006 1.64v2.406h3.28V4.232h-3.28Zm1.64 4.046h.427v-3.28h-.427v3.28Zm.427 0c.582 0 1.517-.195 2.013-1.131l-2.9-1.535c.134-.252.343-.431.556-.529.186-.085.32-.085.33-.085v3.28Zm9.196 3.248v1.64a1.64 1.64 0 0 0 1.636-1.523l-1.636-.117Zm-5.117 0h-1.64c0 .906.734 1.64 1.64 1.64v-1.64Zm0-9.456V.43a1.64 1.64 0 0 0-1.64 1.64h1.64Zm5.269 0 1.637.107A1.64 1.64 0 0 0 32.085.429v1.64Zm-.152 2.33v1.64c.864 0 1.58-.671 1.636-1.534L31.933 4.4Zm-2.513 0V2.76a1.64 1.64 0 0 0-1.64 1.64h1.64Zm0 1.416h-1.64c0 .906.734 1.64 1.64 1.64v-1.64Zm2.178 0h1.64a1.64 1.64 0 0 0-1.64-1.64v1.64Zm0 2.01v1.64a1.64 1.64 0 0 0 1.64-1.64h-1.64Zm-2.178 0v-1.64a1.64 1.64 0 0 0-1.64 1.64h1.64Zm0 1.568h-1.64c0 .906.734 1.64 1.64 1.64v-1.64Zm2.665 0 1.636.117a1.64 1.64 0 0 0-1.636-1.757v1.64Zm-.152.492h-5.117v3.28h5.117v-3.28Zm-3.477 1.64V2.07h-3.28v9.456h3.28Zm-1.64-7.816h5.269V.43h-5.269v3.28Zm3.632-1.747-.152 2.33 3.273.213.153-2.33-3.274-.213Zm1.485.796H29.42v3.28h2.513V2.76ZM27.78 4.4v1.417h3.28V4.399h-3.28Zm1.64 3.057h2.178v-3.28H29.42v3.28Zm.538-1.64v2.01h3.28v-2.01h-3.28Zm1.64.37H29.42v3.28h2.178v-3.28Zm-3.818 1.64v1.568h3.28V7.826h-3.28Zm1.64 3.208h2.665v-3.28H29.42v3.28Zm1.03-1.756-.153 2.131 3.272.234.152-2.132-3.272-.233Zm8.736-2.792-1.49-.685 1.49.685Zm-.807 1.02-1.05-1.26a1.64 1.64 0 0 0-.515 1.752l1.565-.492Zm1.264 4.02v1.64a1.64 1.64 0 0 0 1.564-2.132l-1.564.492Zm-2.817 0-1.581.438a1.64 1.64 0 0 0 1.58 1.202v-1.64Zm-.945-3.41 1.581-.438a1.64 1.64 0 0 0-1.58-1.203v1.64Zm-.35 0v-1.64a1.64 1.64 0 0 0-1.64 1.64h1.64Zm0 3.41v1.64a1.64 1.64 0 0 0 1.64-1.64h-1.64Zm-2.558 0h-1.64c0 .906.734 1.64 1.64 1.64v-1.64Zm0-9.456V.43a1.64 1.64 0 0 0-1.64 1.64h1.64Zm5.756.715-1.172 1.147.012.013 1.16-1.16ZM36.49 6.288l1.323.97-1.323-.97Zm0-1.66-1.351.93.029.04 1.322-.97Zm-.959-.244v-1.64a1.64 1.64 0 0 0-1.64 1.64h1.64Zm0 2.132h-1.64c0 .906.734 1.64 1.64 1.64v-1.64Zm2.274-1.446c0 .415-.065.635-.11.731l2.981 1.37c.301-.656.409-1.38.409-2.101h-3.28Zm-.11.731c-.056.122-.16.273-.366.445l2.1 2.52a4.556 4.556 0 0 0 1.247-1.595l-2.98-1.37Zm-.88 2.197 1.263 4.02 3.13-.984-1.265-4.02-3.129.984Zm2.828 1.888h-2.817v3.28h2.817v-3.28Zm-1.237 1.203-.944-3.411-3.161.875.944 3.41 3.161-.874Zm-2.525-4.614h-.35v3.28h.35v-3.28Zm-1.99 1.64v3.411h3.28v-3.41h-3.28Zm1.64 1.771h-2.558v3.28h2.558v-3.28Zm-.918 1.64V2.07h-3.28v9.456h3.28Zm-1.64-7.816h3.533V.43h-3.533v3.28Zm3.533 0c.8 0 1.021.192 1.051.222l2.344-2.294C38.997.714 37.736.43 36.506.43v3.28Zm1.063.235c.037.037.236.28.236 1.125h3.28c0-1.248-.279-2.527-1.196-3.444l-2.32 2.319Zm-1.642 4.211c.564 0 1.354-.173 1.886-.898l-2.645-1.94c.137-.187.315-.311.482-.379a.77.77 0 0 1 .277-.063v3.28Zm1.886-.898c.447-.61.485-1.36.485-1.793h-3.28c0 .062-.002.107-.005.138-.002.032-.005.043-.004.038a.57.57 0 0 1 .028-.09c.02-.051.06-.136.131-.233l2.645 1.94Zm.485-1.793c0-.432-.035-1.193-.485-1.807l-2.645 1.94a1.051 1.051 0 0 1-.133-.238c-.02-.052-.026-.084-.027-.087l.005.045c.003.034.005.083.005.147h3.28ZM37.842 3.7c-.504-.734-1.28-.955-1.9-.955v3.28a.857.857 0 0 1-.338-.08 1.123 1.123 0 0 1-.465-.387L37.842 3.7Zm-1.9-.955h-.41v3.28h.41v-3.28Zm-2.05 1.64v2.132h3.28V4.384h-3.28Zm1.64 3.772h.395v-3.28h-.396v3.28Z" mask="url(#path-5-outside-2_880_40312)"/><defs><filter id="filter0_i_880_40312" width="39.195" height="9.942" x="2.366" y="14.098" color-interpolation-filters="sRGB" filterUnits="userSpaceOnUse"><feFlood flood-opacity="0" result="BackgroundImageFix"/><feBlend in="SourceGraphic" in2="BackgroundImageFix" mode="normal" result="shape"/><feColorMatrix in="SourceAlpha" result="hardAlpha" type="matrix" values="0 0 0 0 0 0 0 0 0 0 0 0 0 0 0 0 0 0 127 0"/><feOffset dy="-.271"/><feGaussianBlur stdDeviation=".09"/><feComposite in2="hardAlpha" k2="-1" k3="1" operator="arithmetic"/><feColorMatrix type="matrix" values="0 0 0 0 0.251579 0 0 0 0 0.251579 0 0 0 0 0.251579 0 0 0 0.5 0"/><feBlend in2="shape" mode="normal" result="effect1_innerShadow_880_40312"/></filter><filter id="filter1_i_880_40312" width="35.084" height="9.926" x="4.558" y="1.753" color-interpolation-filters="sRGB" filterUnits="userSpaceOnUse"><feFlood flood-opacity="0" result="BackgroundImageFix"/><feBlend in="SourceGraphic" in2="BackgroundImageFix" mode="normal" result="shape"/><feColorMatrix in="SourceAlpha" result="hardAlpha" type="matrix" values="0 0 0 0 0 0 0 0 0 0 0 0 0 0 0 0 0 0 127 0"/><feOffset dy="-.246"/><feGaussianBlur stdDeviation=".082"/><feComposite in2="hardAlpha" k2="-1" k3="1" operator="arithmetic"/><feColorMatrix type="matrix" values="0 0 0 0 0.251579 0 0 0 0 0.251579 0 0 0 0 0.251579 0 0 0 0.5 0"/><feBlend in2="shape" mode="normal" result="effect1_innerShadow_880_40312"/></filter></defs></svg>